solid  Untitled1
  facet normal -1.00000000E+000  0.00000000E+000  0.00000000E+000
    outer loop
      vertex -1.96850394E+000 -3.93700787E-001  0.00000000E+000
      vertex -1.96850394E+000 -3.93700787E-001  3.93700787E+000
      vertex -1.96850394E+000  0.00000000E+000  3.93700787E+000
    endloop
  endfacet
  facet normal -1.00000000E+000  0.00000000E+000  0.00000000E+000
    outer loop
      vertex -1.96850394E+000  0.00000000E+000  3.93700787E+000
      vertex -1.96850394E+000  0.00000000E+000  0.00000000E+000
      vertex -1.96850394E+000 -3.93700787E-001  0.00000000E+000
    endloop
  endfacet
  facet normal -1.00000000E+000  0.00000000E+000  0.00000000E+000
    outer loop
      vertex -1.96850394E+000  0.00000000E+000  3.93700787E+000
      vertex -1.96850394E+000  3.93700787E-001  3.93700787E+000
      vertex -1.96850394E+000  3.93700787E-001  0.00000000E+000
    endloop
  endfacet
  facet normal -1.00000000E+000  0.00000000E+000  0.00000000E+000
    outer loop
      vertex -1.96850394E+000  3.93700787E-001  0.00000000E+000
      vertex -1.96850394E+000  0.00000000E+000  0.00000000E+000
      vertex -1.96850394E+000  0.00000000E+000  3.93700787E+000
    endloop
  endfacet
  facet normal -1.00000000E+000  0.00000000E+000  0.00000000E+000
    outer loop
      vertex -1.96850394E+000  0.00000000E+000  0.00000000E+000
      vertex -1.96850394E+000  0.00000000E+000 -3.93700787E+000
      vertex -1.96850394E+000 -3.93700787E-001 -3.93700787E+000
    endloop
  endfacet
  facet normal -1.00000000E+000  0.00000000E+000  0.00000000E+000
    outer loop
      vertex -1.96850394E+000 -3.93700787E-001 -5.90551181E-001
      vertex -1.96850394E+000 -3.93700787E-001  0.00000000E+000
      vertex -1.96850394E+000  0.00000000E+000  0.00000000E+000
    endloop
  endfacet
  facet normal -1.00000000E+000  0.00000000E+000  0.00000000E+000
    outer loop
      vertex -1.96850394E+000  0.00000000E+000  0.00000000E+000
      vertex -1.96850394E+000 -3.93700787E-001 -3.93700787E+000
      vertex -1.96850394E+000 -3.93700787E-001 -5.90551181E-001
    endloop
  endfacet
  facet normal -1.00000000E+000  0.00000000E+000  0.00000000E+000
    outer loop
      vertex -1.96850394E+000  0.00000000E+000 -3.93700787E+000
      vertex -1.96850394E+000  0.00000000E+000  0.00000000E+000
      vertex -1.96850394E+000  3.93700787E-001  0.00000000E+000
    endloop
  endfacet
  facet normal -1.00000000E+000  0.00000000E+000  0.00000000E+000
    outer loop
      vertex -1.96850394E+000  3.93700787E-001 -5.90551181E-001
      vertex -1.96850394E+000  3.93700787E-001 -3.93700787E+000
      vertex -1.96850394E+000  0.00000000E+000 -3.93700787E+000
    endloop
  endfacet
  facet normal -1.00000000E+000  0.00000000E+000  0.00000000E+000
    outer loop
      vertex -1.96850394E+000  0.00000000E+000 -3.93700787E+000
      vertex -1.96850394E+000  3.93700787E-001  0.00000000E+000
      vertex -1.96850394E+000  3.93700787E-001 -5.90551181E-001
    endloop
  endfacet
  facet normal  1.00000000E+000  0.00000000E+000  0.00000000E+000
    outer loop
      vertex  1.96850394E+000  3.93700787E-001  0.00000000E+000
      vertex  1.96850394E+000  3.93700787E-001  3.93700787E+000
      vertex  1.96850394E+000  0.00000000E+000  3.93700787E+000
    endloop
  endfacet
  facet normal  1.00000000E+000  0.00000000E+000  0.00000000E+000
    outer loop
      vertex  1.96850394E+000  0.00000000E+000  3.93700787E+000
      vertex  1.96850394E+000  0.00000000E+000  0.00000000E+000
      vertex  1.96850394E+000  3.93700787E-001  0.00000000E+000
    endloop
  endfacet
  facet normal  1.00000000E+000  0.00000000E+000  0.00000000E+000
    outer loop
      vertex  1.96850394E+000  0.00000000E+000  3.93700787E+000
      vertex  1.96850394E+000 -3.93700787E-001  3.93700787E+000
      vertex  1.96850394E+000 -3.93700787E-001  0.00000000E+000
    endloop
  endfacet
  facet normal  1.00000000E+000  0.00000000E+000  0.00000000E+000
    outer loop
      vertex  1.96850394E+000 -3.93700787E-001  0.00000000E+000
      vertex  1.96850394E+000  0.00000000E+000  0.00000000E+000
      vertex  1.96850394E+000  0.00000000E+000  3.93700787E+000
    endloop
  endfacet
  facet normal  1.00000000E+000  0.00000000E+000  0.00000000E+000
    outer loop
      vertex  1.96850394E+000  0.00000000E+000  0.00000000E+000
      vertex  1.96850394E+000  0.00000000E+000 -3.93700787E+000
      vertex  1.96850394E+000  3.93700787E-001 -3.93700787E+000
    endloop
  endfacet
  facet normal  1.00000000E+000  0.00000000E+000  9.25185854E-016
    outer loop
      vertex  1.96850394E+000  3.93700787E-001 -5.90551181E-001
      vertex  1.96850394E+000  3.93700787E-001  0.00000000E+000
      vertex  1.96850394E+000  0.00000000E+000  0.00000000E+000
    endloop
  endfacet
  facet normal  1.00000000E+000 -1.63268092E-015 -1.63268092E-016
    outer loop
      vertex  1.96850394E+000  0.00000000E+000  0.00000000E+000
      vertex  1.96850394E+000  3.93700787E-001 -3.93700787E+000
      vertex  1.96850394E+000  3.93700787E-001 -5.90551181E-001
    endloop
  endfacet
  facet normal  1.00000000E+000  0.00000000E+000  0.00000000E+000
    outer loop
      vertex  1.96850394E+000  0.00000000E+000 -3.93700787E+000
      vertex  1.96850394E+000  0.00000000E+000  0.00000000E+000
      vertex  1.96850394E+000 -3.93700787E-001  0.00000000E+000
    endloop
  endfacet
  facet normal  1.00000000E+000  0.00000000E+000  0.00000000E+000
    outer loop
      vertex  1.96850394E+000 -3.93700787E-001 -5.90551181E-001
      vertex  1.96850394E+000 -3.93700787E-001 -3.93700787E+000
      vertex  1.96850394E+000  0.00000000E+000 -3.93700787E+000
    endloop
  endfacet
  facet normal  1.00000000E+000  0.00000000E+000  0.00000000E+000
    outer loop
      vertex  1.96850394E+000  0.00000000E+000 -3.93700787E+000
      vertex  1.96850394E+000 -3.93700787E-001  0.00000000E+000
      vertex  1.96850394E+000 -3.93700787E-001 -5.90551181E-001
    endloop
  endfacet
  facet normal  0.00000000E+000  0.00000000E+000  1.00000000E+000
    outer loop
      vertex -1.96850394E+000  0.00000000E+000  3.93700787E+000
      vertex -1.96850394E+000 -3.93700787E-001  3.93700787E+000
      vertex  0.00000000E+000 -3.93700787E-001  3.93700787E+000
    endloop
  endfacet
  facet normal  0.00000000E+000  0.00000000E+000  1.00000000E+000
    outer loop
      vertex  0.00000000E+000 -3.93700787E-001  3.93700787E+000
      vertex  0.00000000E+000  0.00000000E+000  3.93700787E+000
      vertex -1.96850394E+000  0.00000000E+000  3.93700787E+000
    endloop
  endfacet
  facet normal  0.00000000E+000  0.00000000E+000  1.00000000E+000
    outer loop
      vertex  0.00000000E+000 -3.93700787E-001  3.93700787E+000
      vertex  1.96850394E+000 -3.93700787E-001  3.93700787E+000
      vertex  1.96850394E+000  0.00000000E+000  3.93700787E+000
    endloop
  endfacet
  facet normal  0.00000000E+000  0.00000000E+000  1.00000000E+000
    outer loop
      vertex  1.96850394E+000  0.00000000E+000  3.93700787E+000
      vertex  0.00000000E+000  0.00000000E+000  3.93700787E+000
      vertex  0.00000000E+000 -3.93700787E-001  3.93700787E+000
    endloop
  endfacet
  facet normal  0.00000000E+000  0.00000000E+000  1.00000000E+000
    outer loop
      vertex  0.00000000E+000  3.93700787E-001  3.93700787E+000
      vertex -1.96850394E+000  3.93700787E-001  3.93700787E+000
      vertex -1.96850394E+000  0.00000000E+000  3.93700787E+000
    endloop
  endfacet
  facet normal  0.00000000E+000  0.00000000E+000  1.00000000E+000
    outer loop
      vertex -1.96850394E+000  0.00000000E+000  3.93700787E+000
      vertex  0.00000000E+000  0.00000000E+000  3.93700787E+000
      vertex  0.00000000E+000  3.93700787E-001  3.93700787E+000
    endloop
  endfacet
  facet normal  0.00000000E+000  0.00000000E+000  1.00000000E+000
    outer loop
      vertex  1.96850394E+000  0.00000000E+000  3.93700787E+000
      vertex  1.96850394E+000  3.93700787E-001  3.93700787E+000
      vertex  0.00000000E+000  3.93700787E-001  3.93700787E+000
    endloop
  endfacet
  facet normal  0.00000000E+000  0.00000000E+000  1.00000000E+000
    outer loop
      vertex  0.00000000E+000  3.93700787E-001  3.93700787E+000
      vertex  0.00000000E+000  0.00000000E+000  3.93700787E+000
      vertex  1.96850394E+000  0.00000000E+000  3.93700787E+000
    endloop
  endfacet
  facet normal -1.85037171E-015 -3.20988324E-031 -1.00000000E+000
    outer loop
      vertex  5.90551181E-001 -6.82961998E-017 -5.11811024E+000
      vertex  5.90551181E-001 -3.93700787E-001 -5.11811024E+000
      vertex  0.00000000E+000 -3.93700787E-001 -5.11811024E+000
    endloop
  endfacet
  facet normal  0.00000000E+000 -2.77555756E-015 -1.00000000E+000
    outer loop
      vertex  0.00000000E+000 -3.93700787E-001 -5.11811024E+000
      vertex  0.00000000E+000 -6.82961998E-017 -5.11811024E+000
      vertex  5.90551181E-001 -6.82961998E-017 -5.11811024E+000
    endloop
  endfacet
  facet normal  1.85037171E-015 -1.60494162E-030 -1.00000000E+000
    outer loop
      vertex  0.00000000E+000 -3.93700787E-001 -5.11811024E+000
      vertex -5.90551181E-001 -3.93700787E-001 -5.11811024E+000
      vertex -5.90551181E-001 -6.82961998E-017 -5.11811024E+000
    endloop
  endfacet
  facet normal  0.00000000E+000 -2.77555756E-015 -1.00000000E+000
    outer loop
      vertex -5.90551181E-001 -6.82961998E-017 -5.11811024E+000
      vertex  0.00000000E+000 -6.82961998E-017 -5.11811024E+000
      vertex  0.00000000E+000 -3.93700787E-001 -5.11811024E+000
    endloop
  endfacet
  facet normal  1.85037171E-015  0.00000000E+000 -1.00000000E+000
    outer loop
      vertex  0.00000000E+000  3.93700787E-001 -5.11811024E+000
      vertex  5.90551181E-001  3.93700787E-001 -5.11811024E+000
      vertex  5.90551181E-001 -6.82961998E-017 -5.11811024E+000
    endloop
  endfacet
  facet normal  0.00000000E+000 -2.77555756E-015 -1.00000000E+000
    outer loop
      vertex  5.90551181E-001 -6.82961998E-017 -5.11811024E+000
      vertex  0.00000000E+000 -6.82961998E-017 -5.11811024E+000
      vertex  0.00000000E+000  3.93700787E-001 -5.11811024E+000
    endloop
  endfacet
  facet normal -1.85037171E-015  9.62964972E-031 -1.00000000E+000
    outer loop
      vertex -5.90551181E-001 -6.82961998E-017 -5.11811024E+000
      vertex -5.90551181E-001  3.93700787E-001 -5.11811024E+000
      vertex  0.00000000E+000  3.93700787E-001 -5.11811024E+000
    endloop
  endfacet
  facet normal  0.00000000E+000 -2.77555756E-015 -1.00000000E+000
    outer loop
      vertex  0.00000000E+000  3.93700787E-001 -5.11811024E+000
      vertex  0.00000000E+000 -6.82961998E-017 -5.11811024E+000
      vertex -5.90551181E-001 -6.82961998E-017 -5.11811024E+000
    endloop
  endfacet
  facet normal -1.00000000E+000 -3.46944695E-016 -2.31296463E-016
    outer loop
      vertex -5.90551181E-001 -3.93700787E-001 -4.52755906E+000
      vertex -5.90551181E-001 -3.93700787E-001 -3.93700787E+000
      vertex -5.90551181E-001  0.00000000E+000 -3.93700787E+000
    endloop
  endfacet
  facet normal -1.00000000E+000 -3.46944695E-016 -2.31296463E-016
    outer loop
      vertex -5.90551181E-001  0.00000000E+000 -3.93700787E+000
      vertex -5.90551181E-001 -2.04888600E-016 -4.52755906E+000
      vertex -5.90551181E-001 -3.93700787E-001 -4.52755906E+000
    endloop
  endfacet
  facet normal -1.00000000E+000  1.38777878E-015  9.25185854E-016
    outer loop
      vertex -5.90551181E-001  0.00000000E+000 -3.93700787E+000
      vertex -5.90551181E-001  3.93700787E-001 -3.93700787E+000
      vertex -5.90551181E-001  3.93700787E-001 -4.52755906E+000
    endloop
  endfacet
  facet normal -1.00000000E+000 -3.46944695E-016 -2.31296463E-016
    outer loop
      vertex -5.90551181E-001  3.93700787E-001 -4.52755906E+000
      vertex -5.90551181E-001 -2.04888600E-016 -4.52755906E+000
      vertex -5.90551181E-001  0.00000000E+000 -3.93700787E+000
    endloop
  endfacet
  facet normal -1.00000000E+000  8.67361738E-016  5.78241159E-016
    outer loop
      vertex -5.90551181E-001 -6.82961998E-017 -5.11811024E+000
      vertex -5.90551181E-001 -3.93700787E-001 -5.11811024E+000
      vertex -5.90551181E-001 -3.93700787E-001 -4.52755906E+000
    endloop
  endfacet
  facet normal -1.00000000E+000 -3.46944695E-016 -2.31296463E-016
    outer loop
      vertex -5.90551181E-001 -3.93700787E-001 -4.52755906E+000
      vertex -5.90551181E-001 -2.04888600E-016 -4.52755906E+000
      vertex -5.90551181E-001 -6.82961998E-017 -5.11811024E+000
    endloop
  endfacet
  facet normal -1.00000000E+000  5.20417043E-016 -8.09537622E-016
    outer loop
      vertex -5.90551181E-001  3.93700787E-001 -4.52755906E+000
      vertex -5.90551181E-001  3.93700787E-001 -5.11811024E+000
      vertex -5.90551181E-001 -6.82961998E-017 -5.11811024E+000
    endloop
  endfacet
  facet normal -1.00000000E+000 -3.46944695E-016 -2.31296463E-016
    outer loop
      vertex -5.90551181E-001 -6.82961998E-017 -5.11811024E+000
      vertex -5.90551181E-001 -2.04888600E-016 -4.52755906E+000
      vertex -5.90551181E-001  3.93700787E-001 -4.52755906E+000
    endloop
  endfacet
  facet normal  1.00000000E+000  1.04083409E-015  4.62592927E-016
    outer loop
      vertex  5.90551181E-001  3.93700787E-001 -4.52755906E+000
      vertex  5.90551181E-001  3.93700787E-001 -3.93700787E+000
      vertex  5.90551181E-001 -1.36592400E-016 -3.93700787E+000
    endloop
  endfacet
  facet normal  1.00000000E+000  3.46944695E-016  0.00000000E+000
    outer loop
      vertex  5.90551181E-001 -1.36592400E-016 -3.93700787E+000
      vertex  5.90551181E-001 -1.36592400E-016 -4.52755906E+000
      vertex  5.90551181E-001  3.93700787E-001 -4.52755906E+000
    endloop
  endfacet
  facet normal  1.00000000E+000 -1.73472348E-015  1.38777878E-015
    outer loop
      vertex  5.90551181E-001 -1.36592400E-016 -3.93700787E+000
      vertex  5.90551181E-001 -3.93700787E-001 -3.93700787E+000
      vertex  5.90551181E-001 -3.93700787E-001 -4.52755906E+000
    endloop
  endfacet
  facet normal  1.00000000E+000  3.46944695E-016  0.00000000E+000
    outer loop
      vertex  5.90551181E-001 -3.93700787E-001 -4.52755906E+000
      vertex  5.90551181E-001 -1.36592400E-016 -4.52755906E+000
      vertex  5.90551181E-001 -1.36592400E-016 -3.93700787E+000
    endloop
  endfacet
  facet normal  1.00000000E+000  0.00000000E+000  3.46944695E-016
    outer loop
      vertex  5.90551181E-001 -6.82961998E-017 -5.11811024E+000
      vertex  5.90551181E-001  3.93700787E-001 -5.11811024E+000
      vertex  5.90551181E-001  3.93700787E-001 -4.52755906E+000
    endloop
  endfacet
  facet normal  1.00000000E+000  3.46944695E-016  1.15648232E-016
    outer loop
      vertex  5.90551181E-001  3.93700787E-001 -4.52755906E+000
      vertex  5.90551181E-001 -1.36592400E-016 -4.52755906E+000
      vertex  5.90551181E-001 -6.82961998E-017 -5.11811024E+000
    endloop
  endfacet
  facet normal  1.00000000E+000  1.73472348E-016  0.00000000E+000
    outer loop
      vertex  5.90551181E-001 -3.93700787E-001 -4.52755906E+000
      vertex  5.90551181E-001 -3.93700787E-001 -5.11811024E+000
      vertex  5.90551181E-001 -6.82961998E-017 -5.11811024E+000
    endloop
  endfacet
  facet normal  1.00000000E+000  3.46944695E-016  1.15648232E-016
    outer loop
      vertex  5.90551181E-001 -6.82961998E-017 -5.11811024E+000
      vertex  5.90551181E-001 -1.36592400E-016 -4.52755906E+000
      vertex  5.90551181E-001 -3.93700787E-001 -4.52755906E+000
    endloop
  endfacet
  facet normal  0.00000000E+000  1.00000000E+000  0.00000000E+000
    outer loop
      vertex  0.00000000E+000  3.93700787E-001  3.93700787E+000
      vertex  0.00000000E+000  3.93700787E-001 -5.90551181E-001
      vertex -1.96850394E+000  3.93700787E-001 -5.90551181E-001
    endloop
  endfacet
  facet normal  0.00000000E+000  1.00000000E+000  0.00000000E+000
    outer loop
      vertex -1.96850394E+000  3.93700787E-001  0.00000000E+000
      vertex -1.96850394E+000  3.93700787E-001  3.93700787E+000
      vertex  0.00000000E+000  3.93700787E-001  3.93700787E+000
    endloop
  endfacet
  facet normal  0.00000000E+000  1.00000000E+000  0.00000000E+000
    outer loop
      vertex  0.00000000E+000  3.93700787E-001  3.93700787E+000
      vertex -1.96850394E+000  3.93700787E-001 -5.90551181E-001
      vertex -1.96850394E+000  3.93700787E-001  0.00000000E+000
    endloop
  endfacet
  facet normal  0.00000000E+000  1.00000000E+000  0.00000000E+000
    outer loop
      vertex  0.00000000E+000  3.93700787E-001 -5.90551181E-001
      vertex  0.00000000E+000  3.93700787E-001  3.93700787E+000
      vertex  1.96850394E+000  3.93700787E-001  3.93700787E+000
    endloop
  endfacet
  facet normal  0.00000000E+000  1.00000000E+000  0.00000000E+000
    outer loop
      vertex  1.96850394E+000  3.93700787E-001  0.00000000E+000
      vertex  1.96850394E+000  3.93700787E-001 -5.90551181E-001
      vertex  0.00000000E+000  3.93700787E-001 -5.90551181E-001
    endloop
  endfacet
  facet normal  0.00000000E+000  1.00000000E+000  0.00000000E+000
    outer loop
      vertex  0.00000000E+000  3.93700787E-001 -5.90551181E-001
      vertex  1.96850394E+000  3.93700787E-001  3.93700787E+000
      vertex  1.96850394E+000  3.93700787E-001  0.00000000E+000
    endloop
  endfacet
  facet normal -1.15648232E-016  1.00000000E+000  0.00000000E+000
    outer loop
      vertex  0.00000000E+000  3.93700787E-001 -5.90551181E-001
      vertex  0.00000000E+000  3.93700787E-001 -5.11811024E+000
      vertex -5.90551181E-001  3.93700787E-001 -5.11811024E+000
    endloop
  endfacet
  facet normal  0.00000000E+000  1.00000000E+000  0.00000000E+000
    outer loop
      vertex -1.27952752E+000  3.93700787E-001 -3.93700787E+000
      vertex -1.96850394E+000  3.93700787E-001 -3.93700787E+000
      vertex -1.96850394E+000  3.93700787E-001 -5.90551181E-001
    endloop
  endfacet
  facet normal  9.91270614E-017  1.00000000E+000  2.04085138E-017
    outer loop
      vertex -5.90551181E-001  3.93700787E-001 -3.93700787E+000
      vertex -1.27952752E+000  3.93700787E-001 -3.93700787E+000
      vertex -1.96850394E+000  3.93700787E-001 -5.90551181E-001
    endloop
  endfacet
  facet normal  0.00000000E+000  1.00000000E+000 -2.04085115E-017
    outer loop
      vertex -5.90551181E-001  3.93700787E-001 -3.93700787E+000
      vertex -1.96850394E+000  3.93700787E-001 -5.90551181E-001
      vertex  0.00000000E+000  3.93700787E-001 -5.90551181E-001
    endloop
  endfacet
  facet normal  3.16105167E-015  1.00000000E+000 -5.78241159E-016
    outer loop
      vertex -5.90551181E-001  3.93700787E-001 -4.52755906E+000
      vertex -5.90551181E-001  3.93700787E-001 -3.93700787E+000
      vertex  0.00000000E+000  3.93700787E-001 -5.90551181E-001
    endloop
  endfacet
  facet normal -4.54883045E-015  1.00000000E+000  5.78241159E-016
    outer loop
      vertex  0.00000000E+000  3.93700787E-001 -5.90551181E-001
      vertex -5.90551181E-001  3.93700787E-001 -5.11811024E+000
      vertex -5.90551181E-001  3.93700787E-001 -4.52755906E+000
    endloop
  endfacet
  facet normal  0.00000000E+000  1.00000000E+000  0.00000000E+000
    outer loop
      vertex  5.90551181E-001  3.93700787E-001 -5.11811024E+000
      vertex  0.00000000E+000  3.93700787E-001 -5.11811024E+000
      vertex  0.00000000E+000  3.93700787E-001 -5.90551181E-001
    endloop
  endfacet
  facet normal  0.00000000E+000  1.00000000E+000  0.00000000E+000
    outer loop
      vertex  1.96850394E+000  3.93700787E-001 -5.90551181E-001
      vertex  1.96850394E+000  3.93700787E-001 -3.93700787E+000
      vertex  1.27952752E+000  3.93700787E-001 -3.93700787E+000
    endloop
  endfacet
  facet normal  0.00000000E+000  1.00000000E+000  0.00000000E+000
    outer loop
      vertex  1.96850394E+000  3.93700787E-001 -5.90551181E-001
      vertex  1.27952752E+000  3.93700787E-001 -3.93700787E+000
      vertex  5.90551181E-001  3.93700787E-001 -3.93700787E+000
    endloop
  endfacet
  facet normal  0.00000000E+000  1.00000000E+000  0.00000000E+000
    outer loop
      vertex  0.00000000E+000  3.93700787E-001 -5.90551181E-001
      vertex  1.96850394E+000  3.93700787E-001 -5.90551181E-001
      vertex  5.90551181E-001  3.93700787E-001 -3.93700787E+000
    endloop
  endfacet
  facet normal  2.65990933E-015  1.00000000E+000  3.46944695E-016
    outer loop
      vertex  5.90551181E-001  3.93700787E-001 -4.52755906E+000
      vertex  5.90551181E-001  3.93700787E-001 -5.11811024E+000
      vertex  0.00000000E+000  3.93700787E-001 -5.90551181E-001
    endloop
  endfacet
  facet normal -1.96601994E-015  1.00000000E+000 -3.46944695E-016
    outer loop
      vertex  0.00000000E+000  3.93700787E-001 -5.90551181E-001
      vertex  5.90551181E-001  3.93700787E-001 -3.93700787E+000
      vertex  5.90551181E-001  3.93700787E-001 -4.52755906E+000
    endloop
  endfacet
  facet normal  0.00000000E+000 -1.00000000E+000  0.00000000E+000
    outer loop
      vertex -5.90551181E-001 -3.93700787E-001 -5.11811024E+000
      vertex  0.00000000E+000 -3.93700787E-001 -5.11811024E+000
      vertex  0.00000000E+000 -3.93700787E-001 -5.90551181E-001
    endloop
  endfacet
  facet normal  0.00000000E+000 -1.00000000E+000  0.00000000E+000
    outer loop
      vertex -1.96850394E+000 -3.93700787E-001 -5.90551181E-001
      vertex -1.96850394E+000 -3.93700787E-001 -3.93700787E+000
      vertex -1.27952752E+000 -3.93700787E-001 -3.93700787E+000
    endloop
  endfacet
  facet normal -9.91270614E-017 -1.00000000E+000 -2.04085138E-017
    outer loop
      vertex -1.96850394E+000 -3.93700787E-001 -5.90551181E-001
      vertex -1.27952752E+000 -3.93700787E-001 -3.93700787E+000
      vertex -5.90551181E-001 -3.93700787E-001 -3.93700787E+000
    endloop
  endfacet
  facet normal  0.00000000E+000 -1.00000000E+000  2.04085115E-017
    outer loop
      vertex  0.00000000E+000 -3.93700787E-001 -5.90551181E-001
      vertex -1.96850394E+000 -3.93700787E-001 -5.90551181E-001
      vertex -5.90551181E-001 -3.93700787E-001 -3.93700787E+000
    endloop
  endfacet
  facet normal  0.00000000E+000 -1.00000000E+000  0.00000000E+000
    outer loop
      vertex -5.90551181E-001 -3.93700787E-001 -4.52755906E+000
      vertex -5.90551181E-001 -3.93700787E-001 -5.11811024E+000
      vertex  0.00000000E+000 -3.93700787E-001 -5.90551181E-001
    endloop
  endfacet
  facet normal  7.70988212E-016 -1.00000000E+000 -1.15648232E-016
    outer loop
      vertex  0.00000000E+000 -3.93700787E-001 -5.90551181E-001
      vertex -5.90551181E-001 -3.93700787E-001 -3.93700787E+000
      vertex -5.90551181E-001 -3.93700787E-001 -4.52755906E+000
    endloop
  endfacet
  facet normal -1.15648232E-016 -1.00000000E+000  0.00000000E+000
    outer loop
      vertex  0.00000000E+000 -3.93700787E-001 -5.90551181E-001
      vertex  0.00000000E+000 -3.93700787E-001 -5.11811024E+000
      vertex  5.90551181E-001 -3.93700787E-001 -5.11811024E+000
    endloop
  endfacet
  facet normal  0.00000000E+000 -1.00000000E+000  0.00000000E+000
    outer loop
      vertex  1.27952752E+000 -3.93700787E-001 -3.93700787E+000
      vertex  1.96850394E+000 -3.93700787E-001 -3.93700787E+000
      vertex  1.96850394E+000 -3.93700787E-001 -5.90551181E-001
    endloop
  endfacet
  facet normal  0.00000000E+000 -1.00000000E+000  0.00000000E+000
    outer loop
      vertex  5.90551181E-001 -3.93700787E-001 -3.93700787E+000
      vertex  1.27952752E+000 -3.93700787E-001 -3.93700787E+000
      vertex  1.96850394E+000 -3.93700787E-001 -5.90551181E-001
    endloop
  endfacet
  facet normal  0.00000000E+000 -1.00000000E+000  0.00000000E+000
    outer loop
      vertex  5.90551181E-001 -3.93700787E-001 -3.93700787E+000
      vertex  1.96850394E+000 -3.93700787E-001 -5.90551181E-001
      vertex  0.00000000E+000 -3.93700787E-001 -5.90551181E-001
    endloop
  endfacet
  facet normal  6.55339980E-016 -1.00000000E+000  1.15648232E-016
    outer loop
      vertex  5.90551181E-001 -3.93700787E-001 -4.52755906E+000
      vertex  5.90551181E-001 -3.93700787E-001 -3.93700787E+000
      vertex  0.00000000E+000 -3.93700787E-001 -5.90551181E-001
    endloop
  endfacet
  facet normal -1.15648232E-016 -1.00000000E+000  0.00000000E+000
    outer loop
      vertex  0.00000000E+000 -3.93700787E-001 -5.90551181E-001
      vertex  5.90551181E-001 -3.93700787E-001 -5.11811024E+000
      vertex  5.90551181E-001 -3.93700787E-001 -4.52755906E+000
    endloop
  endfacet
  facet normal  0.00000000E+000 -1.00000000E+000  0.00000000E+000
    outer loop
      vertex  0.00000000E+000 -3.93700787E-001 -5.90551181E-001
      vertex  0.00000000E+000 -3.93700787E-001  3.93700787E+000
      vertex -1.96850394E+000 -3.93700787E-001  3.93700787E+000
    endloop
  endfacet
  facet normal  0.00000000E+000 -1.00000000E+000  0.00000000E+000
    outer loop
      vertex -1.96850394E+000 -3.93700787E-001  0.00000000E+000
      vertex -1.96850394E+000 -3.93700787E-001 -5.90551181E-001
      vertex  0.00000000E+000 -3.93700787E-001 -5.90551181E-001
    endloop
  endfacet
  facet normal  0.00000000E+000 -1.00000000E+000  0.00000000E+000
    outer loop
      vertex  0.00000000E+000 -3.93700787E-001 -5.90551181E-001
      vertex -1.96850394E+000 -3.93700787E-001  3.93700787E+000
      vertex -1.96850394E+000 -3.93700787E-001  0.00000000E+000
    endloop
  endfacet
  facet normal  0.00000000E+000 -1.00000000E+000  0.00000000E+000
    outer loop
      vertex  1.96850394E+000 -3.93700787E-001  3.93700787E+000
      vertex  0.00000000E+000 -3.93700787E-001  3.93700787E+000
      vertex  0.00000000E+000 -3.93700787E-001 -5.90551181E-001
    endloop
  endfacet
  facet normal  0.00000000E+000 -1.00000000E+000  0.00000000E+000
    outer loop
      vertex  1.96850394E+000 -3.93700787E-001  0.00000000E+000
      vertex  1.96850394E+000 -3.93700787E-001  3.93700787E+000
      vertex  0.00000000E+000 -3.93700787E-001 -5.90551181E-001
    endloop
  endfacet
  facet normal  0.00000000E+000 -1.00000000E+000  0.00000000E+000
    outer loop
      vertex  0.00000000E+000 -3.93700787E-001 -5.90551181E-001
      vertex  1.96850394E+000 -3.93700787E-001 -5.90551181E-001
      vertex  1.96850394E+000 -3.93700787E-001  0.00000000E+000
    endloop
  endfacet
  facet normal  0.00000000E+000  0.00000000E+000 -1.00000000E+000
    outer loop
      vertex  5.90551181E-001  3.93700787E-001 -3.93700787E+000
      vertex  1.27952752E+000  3.93700787E-001 -3.93700787E+000
      vertex  1.27952752E+000  0.00000000E+000 -3.93700787E+000
    endloop
  endfacet
  facet normal  0.00000000E+000  0.00000000E+000 -1.00000000E+000
    outer loop
      vertex  1.27952752E+000  0.00000000E+000 -3.93700787E+000
      vertex  5.90551181E-001 -1.36592400E-016 -3.93700787E+000
      vertex  5.90551181E-001  3.93700787E-001 -3.93700787E+000
    endloop
  endfacet
  facet normal  0.00000000E+000  0.00000000E+000 -1.00000000E+000
    outer loop
      vertex  1.27952752E+000  3.93700787E-001 -3.93700787E+000
      vertex  1.96850394E+000  3.93700787E-001 -3.93700787E+000
      vertex  1.96850394E+000  0.00000000E+000 -3.93700787E+000
    endloop
  endfacet
  facet normal  0.00000000E+000  0.00000000E+000 -1.00000000E+000
    outer loop
      vertex  1.96850394E+000  0.00000000E+000 -3.93700787E+000
      vertex  1.27952752E+000  0.00000000E+000 -3.93700787E+000
      vertex  1.27952752E+000  3.93700787E-001 -3.93700787E+000
    endloop
  endfacet
  facet normal  0.00000000E+000  0.00000000E+000 -1.00000000E+000
    outer loop
      vertex  5.90551181E-001 -3.93700787E-001 -3.93700787E+000
      vertex  5.90551181E-001 -1.36592400E-016 -3.93700787E+000
      vertex  1.27952752E+000  0.00000000E+000 -3.93700787E+000
    endloop
  endfacet
  facet normal  0.00000000E+000  0.00000000E+000 -1.00000000E+000
    outer loop
      vertex  1.27952752E+000  0.00000000E+000 -3.93700787E+000
      vertex  1.27952752E+000 -3.93700787E-001 -3.93700787E+000
      vertex  5.90551181E-001 -3.93700787E-001 -3.93700787E+000
    endloop
  endfacet
  facet normal  0.00000000E+000  0.00000000E+000 -1.00000000E+000
    outer loop
      vertex  1.96850394E+000  0.00000000E+000 -3.93700787E+000
      vertex  1.96850394E+000 -3.93700787E-001 -3.93700787E+000
      vertex  1.27952752E+000 -3.93700787E-001 -3.93700787E+000
    endloop
  endfacet
  facet normal  0.00000000E+000  0.00000000E+000 -1.00000000E+000
    outer loop
      vertex  1.27952752E+000 -3.93700787E-001 -3.93700787E+000
      vertex  1.27952752E+000  0.00000000E+000 -3.93700787E+000
      vertex  1.96850394E+000  0.00000000E+000 -3.93700787E+000
    endloop
  endfacet
  facet normal  7.93016401E-016  0.00000000E+000 -1.00000000E+000
    outer loop
      vertex -1.96850394E+000  0.00000000E+000 -3.93700787E+000
      vertex -1.96850394E+000  3.93700787E-001 -3.93700787E+000
      vertex -1.27952752E+000  3.93700787E-001 -3.93700787E+000
    endloop
  endfacet
  facet normal  7.93016401E-016  0.00000000E+000 -1.00000000E+000
    outer loop
      vertex -1.27952752E+000  3.93700787E-001 -3.93700787E+000
      vertex -1.27952752E+000  0.00000000E+000 -3.93700787E+000
      vertex -1.96850394E+000  0.00000000E+000 -3.93700787E+000
    endloop
  endfacet
  facet normal -7.93016491E-016  1.10053146E-030 -1.00000000E+000
    outer loop
      vertex -5.90551181E-001  3.93700787E-001 -3.93700787E+000
      vertex -5.90551181E-001  0.00000000E+000 -3.93700787E+000
      vertex -1.27952752E+000  0.00000000E+000 -3.93700787E+000
    endloop
  endfacet
  facet normal -7.93016491E-016  0.00000000E+000 -1.00000000E+000
    outer loop
      vertex -1.27952752E+000  0.00000000E+000 -3.93700787E+000
      vertex -1.27952752E+000  3.93700787E-001 -3.93700787E+000
      vertex -5.90551181E-001  3.93700787E-001 -3.93700787E+000
    endloop
  endfacet
  facet normal  7.93016401E-016  0.00000000E+000 -1.00000000E+000
    outer loop
      vertex -1.96850394E+000 -3.93700787E-001 -3.93700787E+000
      vertex -1.96850394E+000  0.00000000E+000 -3.93700787E+000
      vertex -1.27952752E+000  0.00000000E+000 -3.93700787E+000
    endloop
  endfacet
  facet normal  7.93016401E-016  0.00000000E+000 -1.00000000E+000
    outer loop
      vertex -1.27952752E+000  0.00000000E+000 -3.93700787E+000
      vertex -1.27952752E+000 -3.93700787E-001 -3.93700787E+000
      vertex -1.96850394E+000 -3.93700787E-001 -3.93700787E+000
    endloop
  endfacet
  facet normal -7.93016491E-016 -2.75132865E-031 -1.00000000E+000
    outer loop
      vertex -5.90551181E-001  0.00000000E+000 -3.93700787E+000
      vertex -5.90551181E-001 -3.93700787E-001 -3.93700787E+000
      vertex -1.27952752E+000 -3.93700787E-001 -3.93700787E+000
    endloop
  endfacet
  facet normal -7.93016491E-016  0.00000000E+000 -1.00000000E+000
    outer loop
      vertex -1.27952752E+000 -3.93700787E-001 -3.93700787E+000
      vertex -1.27952752E+000  0.00000000E+000 -3.93700787E+000
      vertex -5.90551181E-001  0.00000000E+000 -3.93700787E+000
    endloop
  endfacet
endsolid  Untitled1
